# xmcd
# 
# Track frame offsets:
#     150
#     87558
#     104703
#     121370
#     143828
#     165763
# 
# Disc length: 2371
# 
# Revision: 1
# Processed by: cddbd v1.5.2PL0 Copyright (c) Steve Scherf et al.
# Submitted via: BonkEnc v1.0.8
# 
DISCID=4b094106
DTITLE=ハイフォニック・ビッグ１５ - Hi-phonics Hi-phonics
DYEAR=1979
DGENRE=Fusion
TTITLE0=Medley
TTITLE1=First Flash
TTITLE2=Jamaica Jinger
TTITLE3=Happy To Be In Love Again
TTITLE4=Dragoon
TTITLE5=Littl' Duckling
EXTD=YEAR: 1979
EXTT0=
EXTT1=
EXTT2=
EXTT3=
EXTT4=
EXTT5=
PLAYORDER=
